<svg xmlns="http://www.w3.org/2000/svg" viewBox="0 0 393.89 334.01"><defs><style>.cls-1{fill:#c4c4c4;}.cls-2{fill:#969696;}.cls-3{fill:#ccc;}.cls-4{fill:#b7b7b7;}.cls-5{fill:#dd4d14;}.cls-6{fill:#b23012;}.cls-7{fill:#aaa;}.cls-8{fill:#939393;}.cls-9{fill:#6d6d6d;}.cls-10{fill:#ededed;}.cls-11{fill:#ed701b;}.cls-12{fill:#d36113;}.cls-13{fill:#bc5917;}.cls-14{fill:#4c4c4c;}.cls-15{fill:#dd6819;}</style></defs><title>Asset 1</title><g id="Layer_2" data-name="Layer 2"><g id="OBJECTS"><g id="_Group_" data-name="&lt;Group&gt;"><polygon id="_Path_" data-name="&lt;Path&gt;" class="cls-1" points="392.42 190.06 271.46 118.44 255.91 127.89 208.3 101.05 174.47 111.38 216.29 136.44 179.81 143.43 149.18 127.76 122.12 139.16 164.29 167.94 151.63 176.44 287.41 254.69 319.42 233.9 296.63 215.73 328.55 198.69 355.75 213.24 387.09 201.84 377.13 196.23 392.42 190.06"/><g id="_Group_2" data-name="&lt;Group&gt;"><g id="_Group_3" data-name="&lt;Group&gt;"><polygon id="_Path_2" data-name="&lt;Path&gt;" class="cls-2" points="378.86 99.67 378.82 99.7 378.12 100.2 375.99 102.07 349.3 84.84 329.47 73.59 297.08 55.2 277.25 43.93 244.87 25.55 225.04 14.29 219.69 11.26 221.89 9.66 222.59 10.04 242.4 21.21 274.77 39.44 294.58 50.6 326.96 68.82 346.77 79.98 373.36 96.13 378.86 99.67"/><polygon id="_Path_3" data-name="&lt;Path&gt;" class="cls-3" points="375.99 102.07 380.61 130.56 355.03 117.85 335.18 106.52 302.78 87.97 282.93 76.64 250.52 58.12 230.69 46.77 219.69 40.48 219.69 11.26 225.04 14.29 244.87 25.55 277.25 43.93 297.08 55.2 329.47 73.59 349.3 84.84 375.99 102.07"/><polygon id="_Path_4" data-name="&lt;Path&gt;" class="cls-4" points="378.86 99.67 381.33 114.37 381.34 114.41 383.32 128.27 380.61 130.56 375.99 102.07 378.12 100.2 378.86 99.67"/><g id="_Group_4" data-name="&lt;Group&gt;"><polygon id="_Path_5" data-name="&lt;Path&gt;" class="cls-5" points="230.69 46.77 219.69 40.48 219.69 11.26 225.04 14.29 230.69 46.77"/><polygon id="_Path_6" data-name="&lt;Path&gt;" class="cls-5" points="282.93 76.64 250.52 58.12 244.87 25.55 277.25 43.93 282.93 76.64"/><polygon id="_Path_7" data-name="&lt;Path&gt;" class="cls-5" points="335.18 106.52 302.78 87.97 297.08 55.2 329.47 73.59 335.18 106.52"/><polygon id="_Path_8" data-name="&lt;Path&gt;" class="cls-5" points="375.99 102.07 380.61 130.56 355.03 117.85 349.3 84.84 375.99 102.07"/></g><g id="_Group_5" data-name="&lt;Group&gt;"><polygon id="_Path_9" data-name="&lt;Path&gt;" class="cls-6" points="225.04 14.29 219.69 11.26 221.89 9.66 222.59 10.04 225.04 14.29"/><polygon id="_Path_10" data-name="&lt;Path&gt;" class="cls-6" points="277.25 43.93 244.87 25.55 242.4 21.21 274.77 39.44 277.25 43.93"/><polygon id="_Path_11" data-name="&lt;Path&gt;" class="cls-6" points="329.47 73.59 297.08 55.2 294.58 50.6 326.96 68.82 329.47 73.59"/><polygon id="_Path_12" data-name="&lt;Path&gt;" class="cls-6" points="378.87 99.71 381.33 114.37 381.34 114.41 383.32 128.27 380.61 130.56 375.99 102.07 378.12 100.2 378.82 99.7 378.87 99.71"/><polygon id="_Path_13" data-name="&lt;Path&gt;" class="cls-6" points="378.82 99.7 378.12 100.2 375.99 102.07 349.3 84.84 346.77 79.98 373.36 96.13 378.82 99.7"/></g></g><g id="_Group_6" data-name="&lt;Group&gt;"><polygon id="_Path_14" data-name="&lt;Path&gt;" class="cls-2" points="389.42 146.56 389.39 146.59 388.69 147.09 386.56 148.96 359.87 131.73 340.04 120.48 307.64 102.09 287.81 90.82 255.44 72.44 235.61 61.18 230.26 58.15 232.46 56.55 233.15 56.93 252.97 68.1 285.34 86.33 305.15 97.48 337.52 115.71 357.34 126.87 383.93 143.02 389.42 146.56"/><polygon id="_Path_15" data-name="&lt;Path&gt;" class="cls-3" points="386.56 148.96 391.18 177.45 365.6 164.74 345.74 153.41 313.35 134.86 293.5 123.53 261.09 105.01 241.25 93.65 230.26 87.37 230.26 58.15 235.61 61.18 255.44 72.44 287.81 90.82 307.64 102.09 340.04 120.48 359.87 131.73 386.56 148.96"/><polygon id="_Path_16" data-name="&lt;Path&gt;" class="cls-4" points="389.42 146.56 391.89 161.26 391.9 161.3 393.89 175.16 391.18 177.45 386.56 148.96 388.69 147.09 389.42 146.56"/><g id="_Group_7" data-name="&lt;Group&gt;"><polygon id="_Path_17" data-name="&lt;Path&gt;" class="cls-5" points="241.25 93.65 230.26 87.37 230.26 58.15 235.61 61.18 241.25 93.65"/><polygon id="_Path_18" data-name="&lt;Path&gt;" class="cls-5" points="293.5 123.53 261.09 105.01 255.44 72.44 287.81 90.82 293.5 123.53"/><polygon id="_Path_19" data-name="&lt;Path&gt;" class="cls-5" points="345.74 153.41 313.35 134.86 307.64 102.09 340.04 120.48 345.74 153.41"/><polygon id="_Path_20" data-name="&lt;Path&gt;" class="cls-5" points="386.56 148.96 391.18 177.45 365.6 164.74 359.87 131.73 386.56 148.96"/></g><g id="_Group_8" data-name="&lt;Group&gt;"><polygon id="_Path_21" data-name="&lt;Path&gt;" class="cls-6" points="235.61 61.18 230.26 58.15 232.46 56.55 233.15 56.93 235.61 61.18"/><polygon id="_Path_22" data-name="&lt;Path&gt;" class="cls-6" points="287.81 90.82 255.44 72.44 252.97 68.1 285.34 86.33 287.81 90.82"/><polygon id="_Path_23" data-name="&lt;Path&gt;" class="cls-6" points="340.04 120.48 307.64 102.09 305.15 97.48 337.52 115.71 340.04 120.48"/><polygon id="_Path_24" data-name="&lt;Path&gt;" class="cls-6" points="389.43 146.6 391.89 161.26 391.9 161.3 393.89 175.16 391.18 177.45 386.56 148.96 388.69 147.09 389.39 146.59 389.43 146.6"/><polygon id="_Path_25" data-name="&lt;Path&gt;" class="cls-6" points="389.39 146.59 388.69 147.09 386.56 148.96 359.87 131.73 357.34 126.87 383.93 143.02 389.39 146.59"/></g></g><g id="_Group_9" data-name="&lt;Group&gt;"><polygon id="_Path_26" data-name="&lt;Path&gt;" class="cls-7" points="390.08 189.74 387.47 191.14 381.38 187.88 342.45 76.28 350.19 76.91 390.08 189.74"/><polygon id="_Path_27" data-name="&lt;Path&gt;" class="cls-8" points="390.08 189.74 387.47 191.14 347.53 77.42 350.19 76.91 390.08 189.74"/></g><g id="_Group_10" data-name="&lt;Group&gt;"><polygon id="_Path_28" data-name="&lt;Path&gt;" class="cls-7" points="275.79 124.33 273.17 125.73 267.08 122.47 228.16 10.87 235.9 11.49 275.79 124.33"/><polygon id="_Path_29" data-name="&lt;Path&gt;" class="cls-8" points="275.79 124.33 273.17 125.73 233.24 12.01 235.9 11.49 275.79 124.33"/></g><g id="_Group_11" data-name="&lt;Group&gt;"><polygon id="_Path_30" data-name="&lt;Path&gt;" class="cls-4" points="174.38 165.27 227.87 9.04 233.32 12.01 180.78 168.86 174.38 165.27"/><polygon id="_Path_31" data-name="&lt;Path&gt;" class="cls-8" points="180.78 168.86 183.48 168.51 235.89 11.5 233.32 12.01 180.78 168.86"/><polygon id="_Path_32" data-name="&lt;Path&gt;" class="cls-9" points="227.87 9.04 230.25 8.52 235.89 11.5 233.32 12.01 227.87 9.04"/></g><g id="_Group_12" data-name="&lt;Group&gt;"><polygon id="_Path_33" data-name="&lt;Path&gt;" class="cls-4" points="288.63 230.65 342.12 74.42 347.57 77.39 295.02 234.24 288.63 230.65"/><polygon id="_Path_34" data-name="&lt;Path&gt;" class="cls-8" points="295.02 234.24 297.73 233.89 350.14 76.88 347.57 77.39 295.02 234.24"/><polygon id="_Path_35" data-name="&lt;Path&gt;" class="cls-9" points="342.12 74.42 344.5 73.9 350.14 76.88 347.57 77.39 342.12 74.42"/></g><g id="_Group_13" data-name="&lt;Group&gt;"><g id="_Group_14" data-name="&lt;Group&gt;"><path id="_Path_36" data-name="&lt;Path&gt;" class="cls-10" d="M355.19,117.14l-8.36,30.05-3.88-1.92-15.53-9.07L290.3,114.56l-15.53-9.05L237.68,83.87l-15.53-9.05-25.7-15c-1,0,4.26-31.77,4.26-31.77L216,37l15.53,9.07,37.09,21.69,15.53,9.07,37.11,21.69,15.53,9.07Z"/><path id="_Path_37" data-name="&lt;Path&gt;" class="cls-4" d="M359.15,115.62l-9,30.66-3.3.91c-.06-.09,8.36-30.05,8.36-30.05Z"/><polygon id="_Path_38" data-name="&lt;Path&gt;" class="cls-4" points="359.15 115.62 355.19 117.14 336.82 107.61 321.29 98.54 284.18 76.84 268.64 67.77 231.56 46.08 216.02 37 200.71 28.05 203.71 26.27 211.06 30.53 226.57 39.52 263.66 61.02 279.17 70.01 316.26 91.51 331.77 100.5 359.15 115.62"/></g><g id="_Group_15" data-name="&lt;Group&gt;"><path id="_Path_39" data-name="&lt;Path&gt;" class="cls-11" d="M222.15,74.82l-25.7-15c-1,0,4.26-31.77,4.26-31.77L216,37Z"/><polygon id="_Path_40" data-name="&lt;Path&gt;" class="cls-11" points="274.77 105.5 237.68 83.87 231.56 46.08 268.64 67.77 274.77 105.5"/><polygon id="_Path_41" data-name="&lt;Path&gt;" class="cls-11" points="327.41 136.19 290.3 114.56 284.18 76.84 321.29 98.54 327.41 136.19"/><polygon id="_Path_42" data-name="&lt;Path&gt;" class="cls-11" points="355.19 117.14 346.82 147.19 342.94 145.27 336.82 107.61 355.19 117.14"/></g><g id="_Group_16" data-name="&lt;Group&gt;"><polygon id="_Path_43" data-name="&lt;Path&gt;" class="cls-12" points="216.02 37 200.71 28.05 203.71 26.27 211.06 30.53 216.02 37"/><polygon id="_Path_44" data-name="&lt;Path&gt;" class="cls-12" points="268.64 67.77 231.56 46.08 226.57 39.52 263.66 61.02 268.64 67.77"/><polygon id="_Path_45" data-name="&lt;Path&gt;" class="cls-12" points="321.29 98.54 284.18 76.84 279.17 70.01 316.26 91.51 321.29 98.54"/><path id="_Path_46" data-name="&lt;Path&gt;" class="cls-13" d="M359.15,115.62l-9,30.66-3.3.91c-.06-.09,8.36-30.05,8.36-30.05Z"/><polygon id="_Path_47" data-name="&lt;Path&gt;" class="cls-12" points="359.15 115.62 355.19 117.14 336.82 107.61 331.77 100.5 359.15 115.62"/></g></g><g id="_Group_17" data-name="&lt;Group&gt;"><g id="_Group_18" data-name="&lt;Group&gt;"><path id="_Path_48" data-name="&lt;Path&gt;" class="cls-10" d="M333.68,165.72l-8.36,30.05-3.88-1.92-15.53-9.07-37.11-21.63-15.53-9.05-37.09-21.63-15.53-9.05-25.7-15c-1,0,4.26-31.77,4.26-31.77l15.31,9,15.53,9.07,37.09,21.69,15.53,9.07,37.11,21.69,15.53,9.07Z"/><path id="_Path_49" data-name="&lt;Path&gt;" class="cls-4" d="M337.65,164.2l-9,30.66-3.3.91c-.06-.09,8.36-30.05,8.36-30.05Z"/><polygon id="_Path_50" data-name="&lt;Path&gt;" class="cls-4" points="337.65 164.2 333.68 165.72 315.31 156.19 299.78 147.12 262.67 125.42 247.14 116.35 210.05 94.66 194.52 85.58 179.21 76.63 182.2 74.85 189.55 79.11 205.07 88.1 242.15 109.6 257.67 118.59 294.75 140.09 310.27 149.08 337.65 164.2"/></g><g id="_Group_19" data-name="&lt;Group&gt;"><path id="_Path_51" data-name="&lt;Path&gt;" class="cls-11" d="M200.64,123.4l-25.7-15c-1,0,4.26-31.77,4.26-31.77l15.31,9Z"/><polygon id="_Path_52" data-name="&lt;Path&gt;" class="cls-11" points="253.26 154.09 216.17 132.45 210.05 94.66 247.14 116.35 253.26 154.09"/><polygon id="_Path_53" data-name="&lt;Path&gt;" class="cls-11" points="305.9 184.77 268.8 163.14 262.67 125.42 299.78 147.12 305.9 184.77"/><polygon id="_Path_54" data-name="&lt;Path&gt;" class="cls-11" points="333.68 165.72 325.32 195.77 321.44 193.85 315.31 156.19 333.68 165.72"/></g><g id="_Group_20" data-name="&lt;Group&gt;"><polygon id="_Path_55" data-name="&lt;Path&gt;" class="cls-12" points="194.52 85.58 179.21 76.63 182.2 74.85 189.55 79.11 194.52 85.58"/><polygon id="_Path_56" data-name="&lt;Path&gt;" class="cls-12" points="247.14 116.35 210.05 94.66 205.07 88.1 242.15 109.6 247.14 116.35"/><polygon id="_Path_57" data-name="&lt;Path&gt;" class="cls-12" points="299.78 147.12 262.67 125.42 257.67 118.59 294.75 140.09 299.78 147.12"/><path id="_Path_58" data-name="&lt;Path&gt;" class="cls-13" d="M337.65,164.2l-9,30.66-3.3.91c-.06-.09,8.36-30.05,8.36-30.05Z"/><polygon id="_Path_59" data-name="&lt;Path&gt;" class="cls-12" points="337.65 164.2 333.68 165.72 315.31 156.19 310.27 149.08 337.65 164.2"/></g></g><g id="_Group_21" data-name="&lt;Group&gt;"><path id="_Path_60" data-name="&lt;Path&gt;" class="cls-14" d="M238.52,5.27c0,3.35-1.43,6.08-3.26,6.26a.64.64,0,0,1-.21,0c-1.92,0-3.47-2.82-3.47-6.29a9.31,9.31,0,0,1,.12-1.46C232.07,1.29,233.43,0,235,0a.64.64,0,0,1,.21,0c1.53.09,2.8,1.39,3.14,3.79A9.32,9.32,0,0,1,238.52,5.27Z"/><polygon id="_Path_61" data-name="&lt;Path&gt;" class="cls-14" points="235.26 0 235.26 11.56 229.64 11.56 229.76 3.81 229.8 0 235.26 0"/><path id="_Path_62" data-name="&lt;Path&gt;" class="cls-9" d="M238.4,3.81h-8.64l0-3.81h5.45V0C236.78.12,238.05,1.41,238.4,3.81Z"/><path id="_Path_63" data-name="&lt;Path&gt;" class="cls-9" d="M233.27,5.27c0,3.47-1.55,6.28-3.47,6.28s-3.47-2.81-3.47-6.28S227.89,0,229.81,0,233.27,1.8,233.27,5.27Z"/><path id="_Path_64" data-name="&lt;Path&gt;" class="cls-4" d="M232.92,5.33c0,3.12-1.39,5.65-3.12,5.65s-3.12-2.53-3.12-5.65S228.09.59,229.81.59,232.92,2.21,232.92,5.33Z"/><path id="_Path_65" data-name="&lt;Path&gt;" class="cls-6" d="M232.23,5.43a6.59,6.59,0,0,1-.67,3,0,0,0,0,1,0,0,2.1,2.1,0,0,1-1.73,1.36c-1.34,0-2.43-2-2.43-4.41a3.91,3.91,0,0,1,1.2-3.26v0a2,2,0,0,1,1.22-.42C231.14,1.73,232.23,3,232.23,5.43Z"/><path id="_Path_66" data-name="&lt;Path&gt;" class="cls-5" d="M232.23,5.43a6.59,6.59,0,0,1-.67,3,0,0,0,0,1,0,0,1.5,1.5,0,0,1-.95.35c-1.34,0-2.43-2-2.43-4.41a5.62,5.62,0,0,1,.42-2.24v0a2,2,0,0,1,1.22-.42C231.14,1.73,232.23,3,232.23,5.43Z"/></g><g id="_Group_22" data-name="&lt;Group&gt;"><path id="_Path_67" data-name="&lt;Path&gt;" class="cls-14" d="M353.95,70.36c0,3.64-1.56,6.6-3.54,6.8a.7.7,0,0,1-.23,0c-2.08,0-3.76-3.06-3.76-6.83a10.11,10.11,0,0,1,.13-1.58c.4-2.74,1.88-4.14,3.64-4.14a.7.7,0,0,1,.23,0c1.66.1,3,1.51,3.41,4.12A10.11,10.11,0,0,1,353.95,70.36Z"/><polygon id="_Path_68" data-name="&lt;Path&gt;" class="cls-14" points="350.41 64.64 350.41 77.18 344.31 77.18 344.44 68.78 344.49 64.64 350.41 64.64"/><path id="_Path_69" data-name="&lt;Path&gt;" class="cls-9" d="M353.82,68.78h-9.39l.05-4.14h5.92v0C352.07,64.76,353.45,66.17,353.82,68.78Z"/><path id="_Path_70" data-name="&lt;Path&gt;" class="cls-9" d="M348.26,70.36c0,3.77-1.69,6.82-3.76,6.82s-3.76-3.05-3.76-6.82,1.69-5.72,3.76-5.72S348.26,66.6,348.26,70.36Z"/><path id="_Path_71" data-name="&lt;Path&gt;" class="cls-4" d="M347.87,70.42c0,3.39-1.51,6.13-3.38,6.13s-3.38-2.74-3.38-6.13,1.51-5.14,3.38-5.14S347.87,67,347.87,70.42Z"/><path id="_Path_72" data-name="&lt;Path&gt;" class="cls-6" d="M347.12,70.53a7.15,7.15,0,0,1-.73,3.29,0,0,0,0,1,0,0,2.28,2.28,0,0,1-1.88,1.48c-1.46,0-2.63-2.16-2.63-4.79,0-1.78.53-3,1.3-3.54v0a2.18,2.18,0,0,1,1.33-.45C345.94,66.52,347.12,67.87,347.12,70.53Z"/><path id="_Path_73" data-name="&lt;Path&gt;" class="cls-5" d="M347.12,70.53a7.15,7.15,0,0,1-.73,3.29,0,0,0,0,1,0,0,1.63,1.63,0,0,1-1,.38c-1.46,0-2.63-2.13-2.63-4.79a6.11,6.11,0,0,1,.45-2.43v0a2.18,2.18,0,0,1,1.33-.45C345.94,66.52,347.12,67.87,347.12,70.53Z"/></g></g></g><g id="_Group_23" data-name="&lt;Group&gt;"><path id="_Path_74" data-name="&lt;Path&gt;" class="cls-1" d="M366,317.43l-1.66-1.27-.12-.1-.37-.29h0c-1.74-1.25-3.34-7-5.92-7.69l-18.67-.34-8.41-5L329,301.62l-4.66-2.79-4-2.42-5.17-3.1-2-1.21-13.65-8.18-.1-.09a13.3,13.3,0,0,0-4.27-1.86,23.27,23.27,0,0,0-3.42-.64,17.94,17.94,0,0,0-2.06-.11h-.71c-3.48.05-5,1.15-3.58,2.5h0l8.28,8.7,1.13,1.2,3,3.14,2.33,2.44,2.72,2.87h0l1,1.06,7.93,7.06-4,4.39c-.72.81.17,2.16,1.93,3.5h0l1.77,1.35h0c1.8,1.36,30.36,13.82,33.14,14.55l3.14-1.7s9-1.72,11.35-3.77l8.69-7.56c.68-.59.33-1.54-.67-2.58l.07-.08-1.07-.82Z"/><g id="_Group_24" data-name="&lt;Group&gt;"><g id="_Group_25" data-name="&lt;Group&gt;"><path id="_Path_75" data-name="&lt;Path&gt;" class="cls-12" d="M317.15,321.43l18.79,10.39a17.49,17.49,0,0,0,16.62.17l19.22-10.13a5.57,5.57,0,0,0,.23-9.73l-19.34-11.41a16.67,16.67,0,0,0-16.94,0l-18.72,11A5.57,5.57,0,0,0,317.15,321.43Z"/><polygon id="_Path_76" data-name="&lt;Path&gt;" class="cls-12" points="314.28 316.6 314.28 314.72 374.75 314.72 374.75 318.23 361.21 326.33 345.08 330.16 324.69 324.97 314.28 316.6"/></g><path id="_Path_77" data-name="&lt;Path&gt;" class="cls-11" d="M371.78,320l-19.22,10.13a17.49,17.49,0,0,1-16.62-.17l-14-7.74-4.8-2.65a5.57,5.57,0,0,1-.13-9.67l16.87-10,1.84-1.09a16.69,16.69,0,0,1,17,0L372,310.27A5.58,5.58,0,0,1,371.78,320Z"/><path id="_Path_78" data-name="&lt;Path&gt;" class="cls-15" d="M351.34,320.19l-29.39,2-4.8-2.65a5.57,5.57,0,0,1-.13-9.67l16.87-10,15.56-.09Z"/><path id="_Path_79" data-name="&lt;Path&gt;" class="cls-12" d="M362.07,311.41c0,3.46-3.53,6.49-8.8,8.16a31.47,31.47,0,0,1-9.31,1.35c-10,0-18.12-4.26-18.12-9.51a3.65,3.65,0,0,1,.07-.76c.73-4.89,8.53-8.75,18.05-8.75a32.59,32.59,0,0,1,5.89.52c6.38,1.14,11.14,4.11,12.06,7.71A4.65,4.65,0,0,1,362.07,311.41Z"/><path id="_Path_80" data-name="&lt;Path&gt;" class="cls-12" d="M362,310.14h-.09l-7.92.12-2.56,0h-.21l-13.59.18-3,0-8.71.13h-.07l1.43-5.37.43-1.65,2-7.36.39-1.47h0l1.06-4,.89-3.37,1.17-4.34.45-1.65,3.2-12h14.26l3.2,12,.46,1.69,1.15,4.33.91,3.38,1,3.9.41,1.52,2,7.28v0l.46,1.69Z"/><path id="_Path_81" data-name="&lt;Path&gt;" class="cls-15" d="M362.07,311.41c0,3.46-3.53,6.49-8.8,8.16-.49-2.48-1.06-5.37-1.69-8.5l-.16-.77c-.5-2.51-1-5.16-1.57-7.87l-.2-1c-.51-2.56-1-5.17-1.55-7.75h0q-.69-3.46-1.38-6.84c-1.35-6.74-2.6-13-3.5-17.41h7.87l3.2,12,.46,1.69,1.15,4.33.91,3.38,1,3.9.41,1.52,2,7.28v0l.46,1.69,1.31,4.91h-.09A4.65,4.65,0,0,1,362.07,311.41Z"/><path id="_Path_82" data-name="&lt;Path&gt;" class="cls-12" d="M351.09,269.84c0,2.07-3.19,3.75-7.14,3.75a10.06,10.06,0,0,1-5.75-1.55,2.81,2.81,0,0,1-1.38-2.2c0-2.06,3.19-3.74,7.12-3.74,3.12,0,5.77,1,6.74,2.52A2.24,2.24,0,0,1,351.09,269.84Z"/><path id="_Path_83" data-name="&lt;Path&gt;" class="cls-4" d="M351.58,311.07a28.2,28.2,0,0,1-7.62,1,27.1,27.1,0,0,1-9.34-1.56c-4.13-1.52-6.85-4-6.91-6.89l2-7.36.39-1.47c0,4,6.23,7.28,13.89,7.28a24.32,24.32,0,0,0,5.69-.64l.2,1c.55,2.72,1.08,5.37,1.57,7.87Z"/><path id="_Path_84" data-name="&lt;Path&gt;" class="cls-10" d="M360.22,303.51v0c0,2.73-2.44,5.16-6.24,6.72a17.78,17.78,0,0,1-2.4.81l-.16-.77c-.5-2.51-1-5.16-1.57-7.87l-.2-1c4.84-1.14,8.21-3.69,8.21-6.65v-.08l.41,1.52Z"/><path id="_Path_85" data-name="&lt;Path&gt;" class="cls-4" d="M348.1,293.67h0a20.88,20.88,0,0,1-4.15.39c-6.61,0-12-2.81-12-6.28a2.75,2.75,0,0,1,0-.34l1.17-4.34.45-1.65a.64.64,0,0,0,0,.16c0,3,4.63,5.43,10.34,5.43a17.15,17.15,0,0,0,2.77-.21Q347.41,290.2,348.1,293.67Z"/><path id="_Path_86" data-name="&lt;Path&gt;" class="cls-10" d="M355.93,287.8c0,2.72-3.27,5-7.83,5.88q-.69-3.46-1.38-6.84c4.38-.62,7.58-2.72,7.58-5.22a1.13,1.13,0,0,0,0-.21l.46,1.69,1.15,4.33A3.47,3.47,0,0,1,355.93,287.8Z"/><path id="_Path_87" data-name="&lt;Path&gt;" class="cls-15" d="M344,266.1h.75a11.31,11.31,0,0,1,2,.2,8.83,8.83,0,0,1,2.67.94,3.3,3.3,0,0,1,1.9,2.62,2.52,2.52,0,0,1-.18.84,3.19,3.19,0,0,1-.45.73,4.68,4.68,0,0,1-1.26,1,8.55,8.55,0,0,1-2.67.95,12.06,12.06,0,0,1-2,.2H344l.75,0a15.06,15.06,0,0,0,1.95-.32,9,9,0,0,0,2.56-1,4.4,4.4,0,0,0,1.17-1,2.05,2.05,0,0,0,0-2.78,4.55,4.55,0,0,0-1.17-1,9.28,9.28,0,0,0-2.56-1,13.76,13.76,0,0,0-1.95-.32C344.23,266.11,344,266.1,344,266.1Z"/></g></g><g id="_Group_26" data-name="&lt;Group&gt;"><path id="_Path_88" data-name="&lt;Path&gt;" class="cls-1" d="M82.91,199.9l-1.69-1.3-.13-.1-.38-.29h0c-1.77-1.28-3.41-7.13-6-7.85L55.58,190,47,184.86l-1.86-1.11-4.76-2.85-4.13-2.47L31,175.26,28.9,174,15,165.67l-.1-.09a13.58,13.58,0,0,0-4.36-1.9A23.76,23.76,0,0,0,7,163a18.33,18.33,0,0,0-2.11-.12H4.18C.63,163-.89,164.09.53,165.47h0l8.46,8.89,1.16,1.22,3,3.21,2.38,2.49,2.78,2.93h0l1,1.09,4.06,4.5a6.34,6.34,0,0,1,1,7.09l-.17.33c-.74.82.18,2.21,2,3.58h0L28,202.18h0C29.8,203.58,58.18,216.06,61,216.8l3.21-1.74s9.18-1.75,11.58-3.85l8.88-7.72c.69-.6.33-1.57-.69-2.63l.07-.08L83,200Z"/><g id="_Group_27" data-name="&lt;Group&gt;"><g id="_Group_28" data-name="&lt;Group&gt;"><path id="_Path_89" data-name="&lt;Path&gt;" class="cls-12" d="M38.62,205.89l16,8.85a14.9,14.9,0,0,0,14.15.14l16.36-8.62a4.74,4.74,0,0,0,.2-8.28l-16.47-9.72a14.19,14.19,0,0,0-14.42,0l-15.94,9.4A4.74,4.74,0,0,0,38.62,205.89Z"/><polygon id="_Path_90" data-name="&lt;Path&gt;" class="cls-12" points="36.17 201.78 36.17 200.18 87.66 200.18 87.66 203.16 76.13 210.07 62.4 213.33 45.03 208.9 36.17 201.78"/></g><path id="_Path_91" data-name="&lt;Path&gt;" class="cls-11" d="M85.13,204.68,68.77,213.3a14.89,14.89,0,0,1-14.15-.15L42.7,206.57l-4.09-2.26a4.74,4.74,0,0,1-.11-8.23l14.37-8.48,1.56-.93a14.21,14.21,0,0,1,14.43,0l16.47,9.72A4.75,4.75,0,0,1,85.13,204.68Z"/><path id="_Path_92" data-name="&lt;Path&gt;" class="cls-15" d="M67.73,204.83l-25,1.73-4.09-2.26a4.74,4.74,0,0,1-.11-8.23l14.37-8.48,13.25-.08Z"/><path id="_Path_93" data-name="&lt;Path&gt;" class="cls-12" d="M76.87,197.36c0,2.95-3,5.53-7.5,6.95a26.79,26.79,0,0,1-7.93,1.15c-8.52,0-15.43-3.63-15.43-8.1a3.11,3.11,0,0,1,.06-.65c.63-4.17,7.26-7.45,15.37-7.45a27.75,27.75,0,0,1,5,.45c5.43,1,9.48,3.5,10.27,6.57A4,4,0,0,1,76.87,197.36Z"/><path id="_Path_94" data-name="&lt;Path&gt;" class="cls-12" d="M76.8,196.28h-.08l-6.75.1-2.18,0h-.18L56,196.57l-2.56,0-7.42.11H46l1.22-4.57.37-1.41,1.68-6.27.34-1.25h0l.9-3.37.76-2.87,1-3.7.38-1.41,2.73-10.24H67.52l2.73,10.2.39,1.44,1,3.69.77,2.88.89,3.32.35,1.3,1.66,6.2v0l.39,1.44Z"/><path id="_Path_95" data-name="&lt;Path&gt;" class="cls-15" d="M76.87,197.36c0,2.95-3,5.53-7.5,6.95-.41-2.11-.9-4.57-1.44-7.24l-.13-.66c-.42-2.13-.87-4.39-1.34-6.7l-.17-.84c-.44-2.18-.88-4.4-1.32-6.6h0q-.59-2.95-1.17-5.82c-1.15-5.74-2.21-11-3-14.82h6.7l2.73,10.2.39,1.44,1,3.69.77,2.88.89,3.32.35,1.3,1.66,6.2v0l.39,1.44,1.12,4.18h-.08A4,4,0,0,1,76.87,197.36Z"/><path id="_Path_96" data-name="&lt;Path&gt;" class="cls-12" d="M67.52,162c0,1.77-2.71,3.19-6.08,3.19a8.57,8.57,0,0,1-4.89-1.32A2.39,2.39,0,0,1,55.37,162c0-1.75,2.71-3.18,6.07-3.18,2.66,0,4.92.89,5.74,2.14A1.91,1.91,0,0,1,67.52,162Z"/><path id="_Path_97" data-name="&lt;Path&gt;" class="cls-4" d="M67.93,197.07a24,24,0,0,1-6.49.86,23.07,23.07,0,0,1-8-1.33c-3.52-1.3-5.83-3.44-5.89-5.86l1.68-6.27.34-1.25c0,3.43,5.31,6.2,11.83,6.2a20.71,20.71,0,0,0,4.85-.55l.17.84c.47,2.31.92,4.57,1.34,6.7Z"/><path id="_Path_98" data-name="&lt;Path&gt;" class="cls-10" d="M75.29,190.64v0c0,2.32-2.08,4.39-5.32,5.72a15.13,15.13,0,0,1-2,.69l-.13-.66c-.42-2.13-.87-4.39-1.34-6.7l-.17-.84c4.12-1,7-3.14,7-5.66v-.07l.35,1.3Z"/><path id="_Path_99" data-name="&lt;Path&gt;" class="cls-4" d="M65,182.26h0a17.78,17.78,0,0,1-3.53.34c-5.63,0-10.19-2.39-10.19-5.35a2.35,2.35,0,0,1,0-.29l1-3.7.38-1.41a.54.54,0,0,0,0,.13c0,2.56,3.94,4.62,8.8,4.62a14.61,14.61,0,0,0,2.36-.18Q64.38,179.3,65,182.26Z"/><path id="_Path_100" data-name="&lt;Path&gt;" class="cls-10" d="M71.64,177.25c0,2.31-2.78,4.27-6.67,5q-.59-2.95-1.17-5.82c3.73-.53,6.46-2.31,6.46-4.45a1,1,0,0,0,0-.18l.39,1.44,1,3.69A2.94,2.94,0,0,1,71.64,177.25Z"/><path id="_Path_101" data-name="&lt;Path&gt;" class="cls-15" d="M61.44,158.78h.64a9.63,9.63,0,0,1,1.69.17,7.52,7.52,0,0,1,2.27.8A2.81,2.81,0,0,1,67.65,162a2.15,2.15,0,0,1-.16.72,2.71,2.71,0,0,1-.38.62,4,4,0,0,1-1.07.87,7.29,7.29,0,0,1-2.27.81,10.27,10.27,0,0,1-1.69.17h-.64l.64,0a12.8,12.8,0,0,0,1.66-.28,7.67,7.67,0,0,0,2.18-.86,3.74,3.74,0,0,0,1-.83,1.75,1.75,0,0,0,0-2.37,3.88,3.88,0,0,0-1-.83,7.9,7.9,0,0,0-2.18-.86,11.73,11.73,0,0,0-1.66-.27Z"/></g></g></g></g></svg>